{"asset":{"generator":"3D Builder","version":"2.0"},"scene":0,"scenes":[{"nodes":[0,1]}],"nodes":[{"mesh":0,"matrix":[1,0,0,0,0,-1.1920928955078125E-7,-0.99999988079071045,0,0,0.99999988079071045,-1.1920928955078125E-7,0,1.7471553087234497,249.99993896484375,-31.000043869018555,1]},{"mesh":1,"matrix":[1,0,0,0,0,-1.1920928955078125E-7,-0.99999988079071045,0,0,0.99999988079071045,-1.1920928955078125E-7,0,1.7471553087234497,249.99993896484375,-31.000043869018555,1]}],"meshes":[{"primitives":[{"attributes":{"POSITION":0,"TEXCOORD_0":1},"mode":4,"indices":2,"material":0}]},{"primitives":[{"attributes":{"POSITION":3},"mode":4,"indices":4,"material":1}]}],"materials":[{"pbrMetallicRoughness":{"baseColorFactor":[1,1,1,1],"metallicFactor":0,"roughnessFactor":1,"baseColorTexture":{"index":0,"texCoord":0}},"alphaMode":"OPAQUE"},{"name":"blinn2","pbrMetallicRoughness":{"baseColorFactor":[0.29220777750015259,0,0,1],"metallicFactor":0,"roughnessFactor":0.20167982578277588},"alphaMode":"OPAQUE"}],"textures":[{"source":0,"sampler":0}],"images":[{"uri":"texture_2.png"}],"samplers":[{"magFilter":9729,"wrapS":10497,"wrapT":10497}],"accessors":[{"bufferView":0,"byteOffset":0,"count":5383,"componentType":5126,"type":"VEC3","min":[-223.74716186523437,-146,-249.99996948242187],"max":[220.25283813476562,83.999969482421875,245.99996948242187]},{"bufferView":1,"byteOffset":0,"count":5383,"componentType":5126,"type":"VEC2"},{"bufferView":2,"byteOffset":0,"count":30207,"componentType":5125,"type":"SCALAR"},{"bufferView":3,"byteOffset":0,"count":5000,"componentType":5126,"type":"VEC3","min":[-152.699951171875,-91.545639038085938,-199.57444763183594],"max":[155.65283203125,48.097820281982422,242.21189880371094]},{"bufferView":4,"byteOffset":0,"count":30417,"componentType":5125,"type":"SCALAR"}],"bufferViews":[{"buffer":0,"byteOffset":0,"byteLength":64596,"byteStride":12,"target":34962},{"buffer":0,"byteOffset":64596,"byteLength":43064,"byteStride":8,"target":34962},{"buffer":0,"byteOffset":107660,"byteLength":120828,"target":34963},{"buffer":0,"byteOffset":228488,"byteLength":60000,"byteStride":12,"target":34962},{"buffer":0,"byteOffset":288488,"byteLength":121668,"target":34963}],"buffers":[{"byteLength":410156,"uri":"colon01_noLabels.bin"}]}